<?xml version="1.0" encoding="UTF-8"?>
<svg width="1200pt" height="1200pt" version="1.1" viewBox="0 0 1200 1200" xmlns="http://www.w3.org/2000/svg">
 <path d="m600 30c-151.17 0-296.16 60.055-403.05 166.95s-166.95 251.88-166.95 403.05 60.055 296.16 166.95 403.05 251.88 166.95 403.05 166.95 296.16-60.055 403.05-166.95 166.95-251.88 166.95-403.05-60.055-296.16-166.95-403.05-251.88-166.95-403.05-166.95zm5.2812 990.84c-110.51-3.7109-215.25-50.219-292.11-129.7-76.859-79.484-119.83-185.73-119.83-296.3 0-110.57 42.969-216.81 119.83-296.3 76.863-79.484 181.61-125.99 292.11-129.7z" fill="#FFFFFF"/>
</svg>
